[FRAME]
pts_time=0.000000
[/FRAME]
[FRAME]
pts_time=8.341667
[/FRAME]
[FRAME]
pts_time=16.683333
[/FRAME]
[FRAME]
pts_time=25.025000
[/FRAME]
[FRAME]
pts_time=33.366667
[/FRAME]
[FRAME]
pts_time=41.708333
[/FRAME]
[FRAME]
pts_time=50.050000
[/FRAME]
[FRAME]
pts_time=58.391667
[/FRAME]
[FRAME]
pts_time=66.733333
[/FRAME]
[FRAME]
pts_time=75.075000
[/FRAME]
[FRAME]
pts_time=83.416667
[/FRAME]
[FRAME]
pts_time=91.758333
[/FRAME]
[FRAME]
pts_time=100.100000
[/FRAME]
[FRAME]
pts_time=108.441667
[/FRAME]
[FRAME]
pts_time=116.783333
[/FRAME]
[FRAME]
pts_time=125.125000
[/FRAME]
[FRAME]
pts_time=133.466667
[/FRAME]
[FRAME]
pts_time=141.808333
[/FRAME]
[FRAME]
pts_time=150.150000
[/FRAME]
[FRAME]
pts_time=158.491667
[/FRAME]
[FRAME]
pts_time=166.833333
[/FRAME]
[FRAME]
pts_time=175.175000
[/FRAME]
[FRAME]
pts_time=183.516667
[/FRAME]
[FRAME]
pts_time=191.858333
[/FRAME]
[FRAME]
pts_time=200.200000
[/FRAME]
[FRAME]
pts_time=208.541667
[/FRAME]
[FRAME]
pts_time=216.883333
[/FRAME]
[FRAME]
pts_time=225.225000
[/FRAME]
[FRAME]
pts_time=233.566667
[/FRAME]
[FRAME]
pts_time=241.908333
[/FRAME]
[FRAME]
pts_time=250.250000
[/FRAME]
[FRAME]
pts_time=258.591667
[/FRAME]
[FRAME]
pts_time=266.933333
[/FRAME]
[FRAME]
pts_time=275.275000
[/FRAME]
[FRAME]
pts_time=283.616667
[/FRAME]
[FRAME]
pts_time=291.958333
[/FRAME]
[FRAME]
pts_time=300.300000
[/FRAME]
[FRAME]
pts_time=308.641667
[/FRAME]
[FRAME]
pts_time=316.983333
[/FRAME]
[FRAME]
pts_time=325.325000
[/FRAME]
[FRAME]
pts_time=333.666667
[/FRAME]
[FRAME]
pts_time=342.008333
[/FRAME]
[FRAME]
pts_time=350.350000
[/FRAME]
[FRAME]
pts_time=358.691667
[/FRAME]
[FRAME]
pts_time=367.033333
[/FRAME]
[FRAME]
pts_time=375.375000
[/FRAME]
[FRAME]
pts_time=383.716667
[/FRAME]
[FRAME]
pts_time=392.058333
[/FRAME]
[FRAME]
pts_time=400.400000
[/FRAME]
[FRAME]
pts_time=408.741667
[/FRAME]
[FRAME]
pts_time=417.083333
[/FRAME]
[FRAME]
pts_time=425.425000
[/FRAME]
[FRAME]
pts_time=433.766667
[/FRAME]
[FRAME]
pts_time=442.108333
[/FRAME]
[FRAME]
pts_time=450.450000
[/FRAME]
[FRAME]
pts_time=458.791667
[/FRAME]
[FRAME]
pts_time=467.133333
[/FRAME]
[FRAME]
pts_time=475.475000
[/FRAME]
[FRAME]
pts_time=483.816667
[/FRAME]
[FRAME]
pts_time=492.158333
[/FRAME]
[FRAME]
pts_time=500.500000
[/FRAME]
[FRAME]
pts_time=508.841667
[/FRAME]
[FRAME]
pts_time=517.183333
[/FRAME]
[FRAME]
pts_time=525.525000
[/FRAME]
[FRAME]
pts_time=533.866667
[/FRAME]
[FRAME]
pts_time=542.208333
[/FRAME]
[FRAME]
pts_time=550.550000
[/FRAME]
[FRAME]
pts_time=558.891667
[/FRAME]
[FRAME]
pts_time=567.233333
[/FRAME]
[FRAME]
pts_time=575.575000
[/FRAME]
[FRAME]
pts_time=583.916667
[/FRAME]
[FRAME]
pts_time=592.258333
[/FRAME]
[FRAME]
pts_time=600.600000
[/FRAME]
[FRAME]
pts_time=608.941667
[/FRAME]
[FRAME]
pts_time=617.283333
[/FRAME]
[FRAME]
pts_time=625.625000
[/FRAME]
[FRAME]
pts_time=633.966667
[/FRAME]
[FRAME]
pts_time=642.308333
[/FRAME]
[FRAME]
pts_time=650.650000
[/FRAME]
[FRAME]
pts_time=658.991667
[/FRAME]
[FRAME]
pts_time=667.333333
[/FRAME]
[FRAME]
pts_time=675.675000
[/FRAME]
[FRAME]
pts_time=684.016667
[/FRAME]
[FRAME]
pts_time=692.358333
[/FRAME]
[FRAME]
pts_time=700.700000
[/FRAME]
[FRAME]
pts_time=709.041667
[/FRAME]
[FRAME]
pts_time=717.383333
[/FRAME]
[FRAME]
pts_time=725.725000
[/FRAME]
[FRAME]
pts_time=734.066667
[/FRAME]
[FRAME]
pts_time=742.408333
[/FRAME]
[FRAME]
pts_time=750.750000
[/FRAME]
[FRAME]
pts_time=759.091667
[/FRAME]
[FRAME]
pts_time=767.433333
[/FRAME]
[FRAME]
pts_time=775.775000
[/FRAME]
[FRAME]
pts_time=784.116667
[/FRAME]
[FRAME]
pts_time=792.458333
[/FRAME]
[FRAME]
pts_time=800.800000
[/FRAME]
[FRAME]
pts_time=809.141667
[/FRAME]
[FRAME]
pts_time=817.483333
[/FRAME]
[FRAME]
pts_time=825.825000
[/FRAME]
[FRAME]
pts_time=834.166667
[/FRAME]
[FRAME]
pts_time=842.508333
[/FRAME]
[FRAME]
pts_time=850.850000
[/FRAME]
[FRAME]
pts_time=859.191667
[/FRAME]
[FRAME]
pts_time=867.533333
[/FRAME]
[FRAME]
pts_time=875.875000
[/FRAME]
[FRAME]
pts_time=884.216667
[/FRAME]
[FRAME]
pts_time=892.558333
[/FRAME]
[FRAME]
pts_time=900.900000
[/FRAME]
[FRAME]
pts_time=909.241667
[/FRAME]
[FRAME]
pts_time=917.583333
[/FRAME]
[FRAME]
pts_time=925.925000
[/FRAME]
[FRAME]
pts_time=934.266667
[/FRAME]
[FRAME]
pts_time=942.608333
[/FRAME]
[FRAME]
pts_time=950.950000
[/FRAME]
[FRAME]
pts_time=959.291667
[/FRAME]
[FRAME]
pts_time=967.633333
[/FRAME]
[FRAME]
pts_time=975.975000
[/FRAME]
[FRAME]
pts_time=984.316667
[/FRAME]
[FRAME]
pts_time=992.658333
[/FRAME]
[FRAME]
pts_time=1001.000000
[/FRAME]
[FRAME]
pts_time=1009.341667
[/FRAME]
[FRAME]
pts_time=1017.683333
[/FRAME]
[FRAME]
pts_time=1026.025000
[/FRAME]
[FRAME]
pts_time=1034.366667
[/FRAME]
[FRAME]
pts_time=1042.708333
[/FRAME]
[FRAME]
pts_time=1051.050000
[/FRAME]
[FRAME]
pts_time=1059.391667
[/FRAME]
[FRAME]
pts_time=1067.733333
[/FRAME]
[FRAME]
pts_time=1076.075000
[/FRAME]
[FRAME]
pts_time=1084.416667
[/FRAME]
[FRAME]
pts_time=1092.758333
[/FRAME]
[FRAME]
pts_time=1101.100000
[/FRAME]
[FRAME]
pts_time=1109.441667
[/FRAME]
[FRAME]
pts_time=1117.783333
[/FRAME]
[FRAME]
pts_time=1126.125000
[/FRAME]
[FRAME]
pts_time=1134.466667
[/FRAME]
[FRAME]
pts_time=1142.808333
[/FRAME]
[FRAME]
pts_time=1151.150000
[/FRAME]
[FRAME]
pts_time=1159.491667
[/FRAME]
[FRAME]
pts_time=1167.833333
[/FRAME]
[FRAME]
pts_time=1176.175000
[/FRAME]
[FRAME]
pts_time=1184.516667
[/FRAME]
[FRAME]
pts_time=1192.858333
[/FRAME]
[FRAME]
pts_time=1201.200000
[/FRAME]
[FRAME]
pts_time=1209.541667
[/FRAME]
[FRAME]
pts_time=1217.883333
[/FRAME]
[FRAME]
pts_time=1226.225000
[/FRAME]
[FRAME]
pts_time=1234.566667
[/FRAME]
[FRAME]
pts_time=1242.908333
[/FRAME]
[FRAME]
pts_time=1251.250000
[/FRAME]
[FRAME]
pts_time=1259.591667
[/FRAME]
[FRAME]
pts_time=1267.933333
[/FRAME]
[FRAME]
pts_time=1276.275000
[/FRAME]
[FRAME]
pts_time=1284.616667
[/FRAME]
[FRAME]
pts_time=1292.958333
[/FRAME]
[FRAME]
pts_time=1301.300000
[/FRAME]
[FRAME]
pts_time=1309.641667
[/FRAME]
[FRAME]
pts_time=1317.983333
[/FRAME]
[FRAME]
pts_time=1326.325000
[/FRAME]
[FRAME]
pts_time=1334.666667
[/FRAME]
[FRAME]
pts_time=1343.008333
[/FRAME]
[FRAME]
pts_time=1351.350000
[/FRAME]
[FRAME]
pts_time=1359.691667
[/FRAME]
[FRAME]
pts_time=1368.033333
[/FRAME]
[FRAME]
pts_time=1376.375000
[/FRAME]
[FRAME]
pts_time=1384.716667
[/FRAME]
[FRAME]
pts_time=1393.058333
[/FRAME]
[FRAME]
pts_time=1401.400000
[/FRAME]
[FRAME]
pts_time=1409.741667
[/FRAME]
[FRAME]
pts_time=1418.083333
[/FRAME]
[FRAME]
pts_time=1426.425000
[/FRAME]
[FRAME]
pts_time=1434.766667
[/FRAME]
[FRAME]
pts_time=1443.108333
[/FRAME]
[FRAME]
pts_time=1451.450000
[/FRAME]
[FRAME]
pts_time=1459.791667
[/FRAME]
[FRAME]
pts_time=1468.133333
[/FRAME]
[FRAME]
pts_time=1476.475000
[/FRAME]
[FRAME]
pts_time=1484.816667
[/FRAME]
[FRAME]
pts_time=1493.158333
[/FRAME]
[FRAME]
pts_time=1501.500000
[/FRAME]
[FRAME]
pts_time=1509.841667
[/FRAME]
[FRAME]
pts_time=1518.183333
[/FRAME]
[FRAME]
pts_time=1526.525000
[/FRAME]
[FRAME]
pts_time=1534.866667
[/FRAME]
[FRAME]
pts_time=1543.208333
[/FRAME]
[FRAME]
pts_time=1551.550000
[/FRAME]
[FRAME]
pts_time=1559.891667
[/FRAME]
[FRAME]
pts_time=1568.233333
[/FRAME]
[FRAME]
pts_time=1576.575000
[/FRAME]
[FRAME]
pts_time=1584.916667
[/FRAME]
[FRAME]
pts_time=1593.258333
[/FRAME]
[FRAME]
pts_time=1601.600000
[/FRAME]
[FRAME]
pts_time=1609.941667
[/FRAME]
[FRAME]
pts_time=1618.283333
[/FRAME]
[FRAME]
pts_time=1626.625000
[/FRAME]
[FRAME]
pts_time=1634.966667
[/FRAME]
[FRAME]
pts_time=1643.308333
[/FRAME]
[FRAME]
pts_time=1651.650000
[/FRAME]
[FRAME]
pts_time=1659.991667
[/FRAME]
[FRAME]
pts_time=1668.333333
[/FRAME]
[FRAME]
pts_time=1676.675000
[/FRAME]
[FRAME]
pts_time=1685.016667
[/FRAME]
[FRAME]
pts_time=1693.358333
[/FRAME]
[FRAME]
pts_time=1701.700000
[/FRAME]
[FRAME]
pts_time=1710.041667
[/FRAME]
[FRAME]
pts_time=1718.383333
[/FRAME]
[FRAME]
pts_time=1726.725000
[/FRAME]
[FRAME]
pts_time=1735.066667
[/FRAME]
[FRAME]
pts_time=1743.408333
[/FRAME]
[FRAME]
pts_time=1751.750000
[/FRAME]
[FRAME]
pts_time=1760.091667
[/FRAME]
[FRAME]
pts_time=1768.433333
[/FRAME]
[FRAME]
pts_time=1776.775000
[/FRAME]
[FRAME]
pts_time=1785.116667
[/FRAME]
[FRAME]
pts_time=1793.458333
[/FRAME]
[FRAME]
pts_time=1801.800000
[/FRAME]
[FRAME]
pts_time=1810.141667
[/FRAME]
[FRAME]
pts_time=1818.483333
[/FRAME]
[FRAME]
pts_time=1826.825000
[/FRAME]
[FRAME]
pts_time=1835.166667
[/FRAME]
[FRAME]
pts_time=1843.508333
[/FRAME]
[FRAME]
pts_time=1851.850000
[/FRAME]
[FRAME]
pts_time=1860.191667
[/FRAME]
[FRAME]
pts_time=1868.533333
[/FRAME]
[FRAME]
pts_time=1876.875000
[/FRAME]
[FRAME]
pts_time=1885.216667
[/FRAME]
[FRAME]
pts_time=1893.558333
[/FRAME]
[FRAME]
pts_time=1901.900000
[/FRAME]
[FRAME]
pts_time=1910.241667
[/FRAME]
[FRAME]
pts_time=1918.583333
[/FRAME]
[FRAME]
pts_time=1926.925000
[/FRAME]
[FRAME]
pts_time=1935.266667
[/FRAME]
[FRAME]
pts_time=1943.608333
[/FRAME]
[FRAME]
pts_time=1951.950000
[/FRAME]
[FRAME]
pts_time=1960.291667
[/FRAME]
[FRAME]
pts_time=1968.633333
[/FRAME]
[FRAME]
pts_time=1976.975000
[/FRAME]
[FRAME]
pts_time=1985.316667
[/FRAME]
[FRAME]
pts_time=1993.658333
[/FRAME]
[FRAME]
pts_time=2002.000000
[/FRAME]
[FRAME]
pts_time=2010.341667
[/FRAME]
[FRAME]
pts_time=2018.683333
[/FRAME]
[FRAME]
pts_time=2027.025000
[/FRAME]
[FRAME]
pts_time=2035.366667
[/FRAME]
[FRAME]
pts_time=2043.708333
[/FRAME]
[FRAME]
pts_time=2052.050000
[/FRAME]
[FRAME]
pts_time=2060.391667
[/FRAME]
[FRAME]
pts_time=2068.733333
[/FRAME]
[FRAME]
pts_time=2077.075000
[/FRAME]
[FRAME]
pts_time=2085.416667
[/FRAME]
[FRAME]
pts_time=2093.758333
[/FRAME]
[FRAME]
pts_time=2102.100000
[/FRAME]
[FRAME]
pts_time=2110.441667
[/FRAME]
[FRAME]
pts_time=2118.783333
[/FRAME]
[FRAME]
pts_time=2127.125000
[/FRAME]
[FRAME]
pts_time=2135.466667
[/FRAME]
[FRAME]
pts_time=2143.808333
[/FRAME]
[FRAME]
pts_time=2152.150000
[/FRAME]
[FRAME]
pts_time=2160.491667
[/FRAME]
[FRAME]
pts_time=2168.833333
[/FRAME]
[FRAME]
pts_time=2177.175000
[/FRAME]
[FRAME]
pts_time=2185.516667
[/FRAME]
[FRAME]
pts_time=2193.858333
[/FRAME]
[FRAME]
pts_time=2202.200000
[/FRAME]
[FRAME]
pts_time=2210.541667
[/FRAME]
[FRAME]
pts_time=2218.883333
[/FRAME]
[FRAME]
pts_time=2227.225000
[/FRAME]
[FRAME]
pts_time=2235.566667
[/FRAME]
[FRAME]
pts_time=2243.908333
[/FRAME]
[FRAME]
pts_time=2252.250000
[/FRAME]
[FRAME]
pts_time=2260.591667
[/FRAME]
[FRAME]
pts_time=2268.933333
[/FRAME]
[FRAME]
pts_time=2277.275000
[/FRAME]
[FRAME]
pts_time=2285.616667
[/FRAME]
[FRAME]
pts_time=2293.958333
[/FRAME]
[FRAME]
pts_time=2302.300000
[/FRAME]
[FRAME]
pts_time=2310.641667
[/FRAME]
[FRAME]
pts_time=2318.983333
[/FRAME]
[FRAME]
pts_time=2327.325000
[/FRAME]
[FRAME]
pts_time=2335.666667
[/FRAME]
[FRAME]
pts_time=2344.008333
[/FRAME]
[FRAME]
pts_time=2352.350000
[/FRAME]
[FRAME]
pts_time=2360.691667
[/FRAME]
[FRAME]
pts_time=2369.033333
[/FRAME]
[FRAME]
pts_time=2377.375000
[/FRAME]
[FRAME]
pts_time=2385.716667
[/FRAME]
[FRAME]
pts_time=2394.058333
[/FRAME]
[FRAME]
pts_time=2402.400000
[/FRAME]
[FRAME]
pts_time=2410.741667
[/FRAME]
[FRAME]
pts_time=2419.083333
[/FRAME]
[FRAME]
pts_time=2427.425000
[/FRAME]
[FRAME]
pts_time=2435.766667
[/FRAME]
[FRAME]
pts_time=2444.108333
[/FRAME]
[FRAME]
pts_time=2452.450000
[/FRAME]
[FRAME]
pts_time=2460.791667
[/FRAME]
[FRAME]
pts_time=2469.133333
[/FRAME]
[FRAME]
pts_time=2477.475000
[/FRAME]
[FRAME]
pts_time=2485.816667
[/FRAME]
[FRAME]
pts_time=2494.158333
[/FRAME]
[FRAME]
pts_time=2502.500000
[/FRAME]
[FRAME]
pts_time=2510.841667
[/FRAME]
[FRAME]
pts_time=2519.183333
[/FRAME]
[FRAME]
pts_time=2527.525000
[/FRAME]
[FRAME]
pts_time=2535.866667
[/FRAME]
[FRAME]
pts_time=2544.208333
[/FRAME]
[FRAME]
pts_time=2552.550000
[/FRAME]
[FRAME]
pts_time=2560.891667
[/FRAME]
[FRAME]
pts_time=2569.233333
[/FRAME]
[FRAME]
pts_time=2577.575000
[/FRAME]
[FRAME]
pts_time=2585.916667
[/FRAME]
[FRAME]
pts_time=2594.258333
[/FRAME]
[FRAME]
pts_time=2602.600000
[/FRAME]
[FRAME]
pts_time=2610.941667
[/FRAME]
[FRAME]
pts_time=2619.283333
[/FRAME]
[FRAME]
pts_time=2627.625000
[/FRAME]
[FRAME]
pts_time=2635.966667
[/FRAME]
[FRAME]
pts_time=2644.308333
[/FRAME]
[FRAME]
pts_time=2652.650000
[/FRAME]
[FRAME]
pts_time=2660.991667
[/FRAME]
[FRAME]
pts_time=2669.333333
[/FRAME]
[FRAME]
pts_time=2677.675000
[/FRAME]
[FRAME]
pts_time=2686.016667
[/FRAME]
[FRAME]
pts_time=2694.358333
[/FRAME]
[FRAME]
pts_time=2702.700000
[/FRAME]
[FRAME]
pts_time=2711.041667
[/FRAME]
[FRAME]
pts_time=2719.383333
[/FRAME]
[FRAME]
pts_time=2727.725000
[/FRAME]
[FRAME]
pts_time=2736.066667
[/FRAME]
[FRAME]
pts_time=2744.408333
[/FRAME]
[FRAME]
pts_time=2752.750000
[/FRAME]
[FRAME]
pts_time=2761.091667
[/FRAME]
[FRAME]
pts_time=2769.433333
[/FRAME]
[FRAME]
pts_time=2777.775000
[/FRAME]
[FRAME]
pts_time=2786.116667
[/FRAME]
[FRAME]
pts_time=2794.458333
[/FRAME]
[FRAME]
pts_time=2802.800000
[/FRAME]
[FRAME]
pts_time=2811.141667
[/FRAME]
[FRAME]
pts_time=2819.483333
[/FRAME]
[FRAME]
pts_time=2827.825000
[/FRAME]
[FRAME]
pts_time=2836.166667
[/FRAME]
[FRAME]
pts_time=2844.508333
[/FRAME]
[FRAME]
pts_time=2852.850000
[/FRAME]
[FRAME]
pts_time=2861.191667
[/FRAME]
[FRAME]
pts_time=2869.533333
[/FRAME]
[FRAME]
pts_time=2877.875000
[/FRAME]
[FRAME]
pts_time=2886.216667
[/FRAME]
[FRAME]
pts_time=2894.558333
[/FRAME]
[FRAME]
pts_time=2902.900000
[/FRAME]
[FRAME]
pts_time=2911.241667
[/FRAME]
[FRAME]
pts_time=2919.583333
[/FRAME]
[FRAME]
pts_time=2927.925000
[/FRAME]
[FRAME]
pts_time=2936.266667
[/FRAME]
[FRAME]
pts_time=2944.608333
[/FRAME]
[FRAME]
pts_time=2952.950000
[/FRAME]
[FRAME]
pts_time=2961.291667
[/FRAME]
[FRAME]
pts_time=2969.633333
[/FRAME]
[FRAME]
pts_time=2977.975000
[/FRAME]
[FRAME]
pts_time=2986.316667
[/FRAME]
[FRAME]
pts_time=2994.658333
[/FRAME]
[FRAME]
pts_time=3003.000000
[/FRAME]
[FRAME]
pts_time=3011.341667
[/FRAME]
[FRAME]
pts_time=3019.683333
[/FRAME]
[FRAME]
pts_time=3028.025000
[/FRAME]
[FRAME]
pts_time=3036.366667
[/FRAME]
[FRAME]
pts_time=3044.708333
[/FRAME]
[FRAME]
pts_time=3053.050000
[/FRAME]
[FRAME]
pts_time=3061.391667
[/FRAME]
[FRAME]
pts_time=3069.733333
[/FRAME]
[FRAME]
pts_time=3078.075000
[/FRAME]
[FRAME]
pts_time=3086.416667
[/FRAME]
[FRAME]
pts_time=3094.758333
[/FRAME]
[FRAME]
pts_time=3103.100000
[/FRAME]
[FRAME]
pts_time=3111.441667
[/FRAME]
[FRAME]
pts_time=3119.783333
[/FRAME]
[FRAME]
pts_time=3128.125000
[/FRAME]
[FRAME]
pts_time=3136.466667
[/FRAME]
[FRAME]
pts_time=3144.808333
[/FRAME]
[FRAME]
pts_time=3153.150000
[/FRAME]
[FRAME]
pts_time=3161.491667
[/FRAME]
[FRAME]
pts_time=3169.833333
[/FRAME]
[FRAME]
pts_time=3178.175000
[/FRAME]
[FRAME]
pts_time=3186.516667
[/FRAME]
[FRAME]
pts_time=3194.858333
[/FRAME]
[FRAME]
pts_time=3203.200000
[/FRAME]
[FRAME]
pts_time=3211.541667
[/FRAME]
[FRAME]
pts_time=3219.883333
[/FRAME]
[FRAME]
pts_time=3228.225000
[/FRAME]
[FRAME]
pts_time=3236.566667
[/FRAME]
[FRAME]
pts_time=3244.908333
[/FRAME]
[FRAME]
pts_time=3253.250000
[/FRAME]
[FRAME]
pts_time=3261.591667
[/FRAME]
[FRAME]
pts_time=3269.933333
[/FRAME]
[FRAME]
pts_time=3278.275000
[/FRAME]
[FRAME]
pts_time=3286.616667
[/FRAME]
[FRAME]
pts_time=3294.958333
[/FRAME]
[FRAME]
pts_time=3303.300000
[/FRAME]
[FRAME]
pts_time=3311.641667
[/FRAME]
[FRAME]
pts_time=3319.983333
[/FRAME]
[FRAME]
pts_time=3328.325000
[/FRAME]
[FRAME]
pts_time=3336.666667
[/FRAME]
[FRAME]
pts_time=3345.008333
[/FRAME]
[FRAME]
pts_time=3353.350000
[/FRAME]
[FRAME]
pts_time=3361.691667
[/FRAME]
[FRAME]
pts_time=3370.033333
[/FRAME]
[FRAME]
pts_time=3378.375000
[/FRAME]
[FRAME]
pts_time=3386.716667
[/FRAME]
[FRAME]
pts_time=3395.058333
[/FRAME]
[FRAME]
pts_time=3403.400000
[/FRAME]
[FRAME]
pts_time=3411.741667
[/FRAME]
[FRAME]
pts_time=3420.083333
[/FRAME]
[FRAME]
pts_time=3428.425000
[/FRAME]
[FRAME]
pts_time=3436.766667
[/FRAME]
[FRAME]
pts_time=3445.108333
[/FRAME]
[FRAME]
pts_time=3453.450000
[/FRAME]
[FRAME]
pts_time=3461.791667
[/FRAME]
[FRAME]
pts_time=3470.133333
[/FRAME]
[FRAME]
pts_time=3478.475000
[/FRAME]
[FRAME]
pts_time=3486.816667
[/FRAME]
[FRAME]
pts_time=3495.158333
[/FRAME]
[FRAME]
pts_time=3503.500000
[/FRAME]
[FRAME]
pts_time=3511.841667
[/FRAME]
[FRAME]
pts_time=3520.183333
[/FRAME]
[FRAME]
pts_time=3528.525000
[/FRAME]
[FRAME]
pts_time=3536.866667
[/FRAME]
[FRAME]
pts_time=3545.208333
[/FRAME]
[FRAME]
pts_time=3553.550000
[/FRAME]
[FRAME]
pts_time=3561.891667
[/FRAME]
[FRAME]
pts_time=3570.233333
[/FRAME]
[FRAME]
pts_time=3578.575000
[/FRAME]
[FRAME]
pts_time=3586.916667
[/FRAME]
[FRAME]
pts_time=3595.258333
[/FRAME]
[FRAME]
pts_time=3603.600000
[/FRAME]
[FRAME]
pts_time=3611.941667
[/FRAME]
[FRAME]
pts_time=3620.283333
[/FRAME]
[FRAME]
pts_time=3628.625000
[/FRAME]
[FRAME]
pts_time=3636.966667
[/FRAME]
[FRAME]
pts_time=3645.308333
[/FRAME]
[FRAME]
pts_time=3653.650000
[/FRAME]
[FRAME]
pts_time=3661.991667
[/FRAME]
[FRAME]
pts_time=3670.333333
[/FRAME]
[FRAME]
pts_time=3678.675000
[/FRAME]
[FRAME]
pts_time=3687.016667
[/FRAME]
[FRAME]
pts_time=3695.358333
[/FRAME]
[FRAME]
pts_time=3703.700000
[/FRAME]
[FRAME]
pts_time=3712.041667
[/FRAME]
[FRAME]
pts_time=3720.383333
[/FRAME]
[FRAME]
pts_time=3728.725000
[/FRAME]
[FRAME]
pts_time=3737.066667
[/FRAME]
[FRAME]
pts_time=3745.408333
[/FRAME]
[FRAME]
pts_time=3753.750000
[/FRAME]
[FRAME]
pts_time=3762.091667
[/FRAME]
[FRAME]
pts_time=3770.433333
[/FRAME]
[FRAME]
pts_time=3778.775000
[/FRAME]
[FRAME]
pts_time=3787.116667
[/FRAME]
[FRAME]
pts_time=3795.458333
[/FRAME]
[FRAME]
pts_time=3803.800000
[/FRAME]
[FRAME]
pts_time=3812.141667
[/FRAME]
[FRAME]
pts_time=3820.483333
[/FRAME]
[FRAME]
pts_time=3828.825000
[/FRAME]
[FRAME]
pts_time=3837.166667
[/FRAME]
[FRAME]
pts_time=3845.508333
[/FRAME]
[FRAME]
pts_time=3853.850000
[/FRAME]
[FRAME]
pts_time=3862.191667
[/FRAME]
[FRAME]
pts_time=3870.533333
[/FRAME]
[FRAME]
pts_time=3878.875000
[/FRAME]
[FRAME]
pts_time=3887.216667
[/FRAME]
[FRAME]
pts_time=3895.558333
[/FRAME]
[FRAME]
pts_time=3903.900000
[/FRAME]
[FRAME]
pts_time=3912.241667
[/FRAME]
[FRAME]
pts_time=3920.583333
[/FRAME]
[FRAME]
pts_time=3928.925000
[/FRAME]
[FRAME]
pts_time=3937.266667
[/FRAME]
[FRAME]
pts_time=3945.608333
[/FRAME]
[FRAME]
pts_time=3953.950000
[/FRAME]
[FRAME]
pts_time=3962.291667
[/FRAME]
[FRAME]
pts_time=3970.633333
[/FRAME]
[FRAME]
pts_time=3978.975000
[/FRAME]
[FRAME]
pts_time=3987.316667
[/FRAME]
[FRAME]
pts_time=3995.658333
[/FRAME]
[FRAME]
pts_time=4004.000000
[/FRAME]
[FRAME]
pts_time=4012.341667
[/FRAME]
[FRAME]
pts_time=4020.683333
[/FRAME]
[FRAME]
pts_time=4029.025000
[/FRAME]
[FRAME]
pts_time=4037.366667
[/FRAME]
[FRAME]
pts_time=4045.708333
[/FRAME]
[FRAME]
pts_time=4054.050000
[/FRAME]
[FRAME]
pts_time=4062.391667
[/FRAME]
[FRAME]
pts_time=4070.733333
[/FRAME]
[FRAME]
pts_time=4079.075000
[/FRAME]
[FRAME]
pts_time=4087.416667
[/FRAME]
[FRAME]
pts_time=4095.758333
[/FRAME]
[FRAME]
pts_time=4104.100000
[/FRAME]
[FRAME]
pts_time=4112.441667
[/FRAME]
[FRAME]
pts_time=4120.783333
[/FRAME]
[FRAME]
pts_time=4129.125000
[/FRAME]
[FRAME]
pts_time=4137.466667
[/FRAME]
[FRAME]
pts_time=4145.808333
[/FRAME]
[FRAME]
pts_time=4154.150000
[/FRAME]
[FRAME]
pts_time=4162.491667
[/FRAME]
[FRAME]
pts_time=4170.833333
[/FRAME]
[FRAME]
pts_time=4179.175000
[/FRAME]
[FRAME]
pts_time=4187.516667
[/FRAME]
[FRAME]
pts_time=4195.858333
[/FRAME]
[FRAME]
pts_time=4204.200000
[/FRAME]
[FRAME]
pts_time=4212.541667
[/FRAME]
[FRAME]
pts_time=4220.883333
[/FRAME]
[FRAME]
pts_time=4229.225000
[/FRAME]
[FRAME]
pts_time=4237.566667
[/FRAME]
[FRAME]
pts_time=4245.908333
[/FRAME]
[FRAME]
pts_time=4254.250000
[/FRAME]
[FRAME]
pts_time=4262.591667
[/FRAME]
[FRAME]
pts_time=4270.933333
[/FRAME]
[FRAME]
pts_time=4279.275000
[/FRAME]
[FRAME]
pts_time=4287.616667
[/FRAME]
[FRAME]
pts_time=4295.958333
[/FRAME]
[FRAME]
pts_time=4304.300000
[/FRAME]
[FRAME]
pts_time=4312.641667
[/FRAME]
[FRAME]
pts_time=4320.983333
[/FRAME]
[FRAME]
pts_time=4329.325000
[/FRAME]
[FRAME]
pts_time=4337.666667
[/FRAME]
[FRAME]
pts_time=4346.008333
[/FRAME]
[FRAME]
pts_time=4354.350000
[/FRAME]
[FRAME]
pts_time=4362.691667
[/FRAME]
[FRAME]
pts_time=4371.033333
[/FRAME]
[FRAME]
pts_time=4379.375000
[/FRAME]
[FRAME]
pts_time=4387.716667
[/FRAME]
[FRAME]
pts_time=4396.058333
[/FRAME]
[FRAME]
pts_time=4404.400000
[/FRAME]
[FRAME]
pts_time=4412.741667
[/FRAME]
[FRAME]
pts_time=4421.083333
[/FRAME]
[FRAME]
pts_time=4429.425000
[/FRAME]
[FRAME]
pts_time=4437.766667
[/FRAME]
[FRAME]
pts_time=4446.108333
[/FRAME]
[FRAME]
pts_time=4454.450000
[/FRAME]
[FRAME]
pts_time=4462.791667
[/FRAME]
[FRAME]
pts_time=4471.133333
[/FRAME]
[FRAME]
pts_time=4479.475000
[/FRAME]
[FRAME]
pts_time=4487.816667
[/FRAME]
[FRAME]
pts_time=4496.158333
[/FRAME]
[FRAME]
pts_time=4504.500000
[/FRAME]
[FRAME]
pts_time=4512.841667
[/FRAME]
[FRAME]
pts_time=4521.183333
[/FRAME]
[FRAME]
pts_time=4529.525000
[/FRAME]
[FRAME]
pts_time=4537.866667
[/FRAME]
[FRAME]
pts_time=4546.208333
[/FRAME]
[FRAME]
pts_time=4554.550000
[/FRAME]
[FRAME]
pts_time=4562.891667
[/FRAME]
[FRAME]
pts_time=4571.233333
[/FRAME]
[FRAME]
pts_time=4579.575000
[/FRAME]
[FRAME]
pts_time=4587.916667
[/FRAME]
[FRAME]
pts_time=4596.258333
[/FRAME]
[FRAME]
pts_time=4604.600000
[/FRAME]
[FRAME]
pts_time=4612.941667
[/FRAME]
[FRAME]
pts_time=4621.283333
[/FRAME]
[FRAME]
pts_time=4629.625000
[/FRAME]
[FRAME]
pts_time=4637.966667
[/FRAME]
[FRAME]
pts_time=4646.308333
[/FRAME]
[FRAME]
pts_time=4654.650000
[/FRAME]
[FRAME]
pts_time=4662.991667
[/FRAME]
[FRAME]
pts_time=4671.333333
[/FRAME]
[FRAME]
pts_time=4679.675000
[/FRAME]
[FRAME]
pts_time=4688.016667
[/FRAME]
[FRAME]
pts_time=4696.358333
[/FRAME]
[FRAME]
pts_time=4704.700000
[/FRAME]
[FRAME]
pts_time=4713.041667
[/FRAME]
[FRAME]
pts_time=4721.383333
[/FRAME]
[FRAME]
pts_time=4729.725000
[/FRAME]
[FRAME]
pts_time=4738.066667
[/FRAME]
[FRAME]
pts_time=4746.408333
[/FRAME]
[FRAME]
pts_time=4754.750000
[/FRAME]
[FRAME]
pts_time=4763.091667
[/FRAME]
[FRAME]
pts_time=4771.433333
[/FRAME]
[FRAME]
pts_time=4779.775000
[/FRAME]
[FRAME]
pts_time=4788.116667
[/FRAME]
[FRAME]
pts_time=4796.458333
[/FRAME]
[FRAME]
pts_time=4804.800000
[/FRAME]
[FRAME]
pts_time=4813.141667
[/FRAME]
[FRAME]
pts_time=4821.483333
[/FRAME]
[FRAME]
pts_time=4829.825000
[/FRAME]
[FRAME]
pts_time=4838.166667
[/FRAME]
[FRAME]
pts_time=4846.508333
[/FRAME]
[FRAME]
pts_time=4854.850000
[/FRAME]
[FRAME]
pts_time=4863.191667
[/FRAME]
[FRAME]
pts_time=4871.533333
[/FRAME]
[FRAME]
pts_time=4879.875000
[/FRAME]
[FRAME]
pts_time=4888.216667
[/FRAME]
[FRAME]
pts_time=4896.558333
[/FRAME]
[FRAME]
pts_time=4904.900000
[/FRAME]
[FRAME]
pts_time=4913.241667
[/FRAME]
[FRAME]
pts_time=4921.583333
[/FRAME]
[FRAME]
pts_time=4929.925000
[/FRAME]
[FRAME]
pts_time=4938.266667
[/FRAME]
[FRAME]
pts_time=4946.608333
[/FRAME]
[FRAME]
pts_time=4954.950000
[/FRAME]
[FRAME]
pts_time=4963.291667
[/FRAME]
[FRAME]
pts_time=4971.633333
[/FRAME]
[FRAME]
pts_time=4979.975000
[/FRAME]
[FRAME]
pts_time=4988.316667
[/FRAME]
[FRAME]
pts_time=4996.658333
[/FRAME]
[FRAME]
pts_time=5005.000000
[/FRAME]
[FRAME]
pts_time=5013.341667
[/FRAME]
[FRAME]
pts_time=5021.683333
[/FRAME]
[FRAME]
pts_time=5030.025000
[/FRAME]
[FRAME]
pts_time=5038.366667
[/FRAME]
[FRAME]
pts_time=5046.708333
[/FRAME]
[FRAME]
pts_time=5055.050000
[/FRAME]
[FRAME]
pts_time=5063.391667
[/FRAME]
[FRAME]
pts_time=5071.733333
[/FRAME]
[FRAME]
pts_time=5080.075000
[/FRAME]
[FRAME]
pts_time=5088.416667
[/FRAME]
[FRAME]
pts_time=5096.758333
[/FRAME]
[FRAME]
pts_time=5105.100000
[/FRAME]
[FRAME]
pts_time=5113.441667
[/FRAME]
[FRAME]
pts_time=5121.783333
[/FRAME]
[FRAME]
pts_time=5130.125000
[/FRAME]
[FRAME]
pts_time=5138.466667
[/FRAME]
[FRAME]
pts_time=5146.808333
[/FRAME]
[FRAME]
pts_time=5155.150000
[/FRAME]
[FRAME]
pts_time=5163.491667
[/FRAME]
[FRAME]
pts_time=5171.833333
[/FRAME]
[FRAME]
pts_time=5180.175000
[/FRAME]
[FRAME]
pts_time=5188.516667
[/FRAME]
[FRAME]
pts_time=5196.858333
[/FRAME]
[FRAME]
pts_time=5205.200000
[/FRAME]
[FRAME]
pts_time=5213.541667
[/FRAME]
[FRAME]
pts_time=5221.883333
[/FRAME]
[FRAME]
pts_time=5230.225000
[/FRAME]
[FRAME]
pts_time=5238.566667
[/FRAME]
[FRAME]
pts_time=5246.908333
[/FRAME]
[FRAME]
pts_time=5255.250000
[/FRAME]
[FRAME]
pts_time=5263.591667
[/FRAME]
[FRAME]
pts_time=5271.933333
[/FRAME]
[FRAME]
pts_time=5280.275000
[/FRAME]
[FRAME]
pts_time=5288.616667
[/FRAME]
[FRAME]
pts_time=5296.958333
[/FRAME]
[FRAME]
pts_time=5305.300000
[/FRAME]
[FRAME]
pts_time=5313.641667
[/FRAME]
[FRAME]
pts_time=5321.983333
[/FRAME]
[FRAME]
pts_time=5330.325000
[/FRAME]
[FRAME]
pts_time=5338.666667
[/FRAME]
[FRAME]
pts_time=5347.008333
[/FRAME]
[FRAME]
pts_time=5355.350000
[/FRAME]
[FRAME]
pts_time=5363.691667
[/FRAME]
[FRAME]
pts_time=5372.033333
[/FRAME]
[FRAME]
pts_time=5380.375000
[/FRAME]
[FRAME]
pts_time=5388.716667
[/FRAME]
[FRAME]
pts_time=5397.058333
[/FRAME]
[FRAME]
pts_time=5405.400000
[/FRAME]
[FRAME]
pts_time=5413.741667
[/FRAME]
[FRAME]
pts_time=5422.083333
[/FRAME]
[FRAME]
pts_time=5430.425000
[/FRAME]
[FRAME]
pts_time=5438.766667
[/FRAME]
[FRAME]
pts_time=5447.108333
[/FRAME]
[FRAME]
pts_time=5455.450000
[/FRAME]
[FRAME]
pts_time=5463.791667
[/FRAME]
[FRAME]
pts_time=5472.133333
[/FRAME]
[FRAME]
pts_time=5480.475000
[/FRAME]
[FRAME]
pts_time=5488.816667
[/FRAME]
[FRAME]
pts_time=5497.158333
[/FRAME]
[FRAME]
pts_time=5505.500000
[/FRAME]
[FRAME]
pts_time=5513.841667
[/FRAME]
[FRAME]
pts_time=5522.183333
[/FRAME]
[FRAME]
pts_time=5530.525000
[/FRAME]
[FRAME]
pts_time=5538.866667
[/FRAME]
[FRAME]
pts_time=5547.208333
[/FRAME]
[FRAME]
pts_time=5555.550000
[/FRAME]
[FRAME]
pts_time=5563.891667
[/FRAME]
[FRAME]
pts_time=5572.233333
[/FRAME]
[FRAME]
pts_time=5580.575000
[/FRAME]
[FRAME]
pts_time=5588.916667
[/FRAME]
[FRAME]
pts_time=5597.258333
[/FRAME]
[FRAME]
pts_time=5605.600000
[/FRAME]
[FRAME]
pts_time=5613.941667
[/FRAME]
[FRAME]
pts_time=5622.283333
[/FRAME]
[FRAME]
pts_time=5630.625000
[/FRAME]
[FRAME]
pts_time=5638.966667
[/FRAME]
[FRAME]
pts_time=5647.308333
[/FRAME]
[FRAME]
pts_time=5655.650000
[/FRAME]
[FRAME]
pts_time=5663.991667
[/FRAME]
[FRAME]
pts_time=5672.333333
[/FRAME]
[FRAME]
pts_time=5680.675000
[/FRAME]
[FRAME]
pts_time=5689.016667
[/FRAME]
[FRAME]
pts_time=5697.358333
[/FRAME]
[FRAME]
pts_time=5705.700000
[/FRAME]
[FRAME]
pts_time=5714.041667
[/FRAME]
[FRAME]
pts_time=5722.383333
[/FRAME]
[FRAME]
pts_time=5730.725000
[/FRAME]
[FRAME]
pts_time=5739.066667
[/FRAME]
[FRAME]
pts_time=5747.408333
[/FRAME]
[FRAME]
pts_time=5755.750000
[/FRAME]
[FRAME]
pts_time=5764.091667
[/FRAME]
[FRAME]
pts_time=5772.433333
[/FRAME]
[FRAME]
pts_time=5780.775000
[/FRAME]
[FRAME]
pts_time=5789.116667
[/FRAME]
[FRAME]
pts_time=5797.458333
[/FRAME]
[FRAME]
pts_time=5805.800000
[/FRAME]
[FRAME]
pts_time=5814.141667
[/FRAME]
[FRAME]
pts_time=5822.483333
[/FRAME]
[FRAME]
pts_time=5830.825000
[/FRAME]
[FRAME]
pts_time=5839.166667
[/FRAME]
[FRAME]
pts_time=5847.508333
[/FRAME]
[FRAME]
pts_time=5855.850000
[/FRAME]
[FRAME]
pts_time=5864.191667
[/FRAME]
[FRAME]
pts_time=5872.533333
[/FRAME]
[FRAME]
pts_time=5880.875000
[/FRAME]
[FRAME]
pts_time=5889.216667
[/FRAME]
[FRAME]
pts_time=5897.558333
[/FRAME]
[FRAME]
pts_time=5905.900000
[/FRAME]
[FRAME]
pts_time=5914.241667
[/FRAME]
[FRAME]
pts_time=5922.583333
[/FRAME]
[FRAME]
pts_time=5930.925000
[/FRAME]
[FRAME]
pts_time=5939.266667
[/FRAME]
[FRAME]
pts_time=5947.608333
[/FRAME]
[FRAME]
pts_time=5955.950000
[/FRAME]
[FRAME]
pts_time=5964.291667
[/FRAME]
[FRAME]
pts_time=5972.633333
[/FRAME]
[FRAME]
pts_time=5980.975000
[/FRAME]
[FRAME]
pts_time=5989.316667
[/FRAME]
[FRAME]
pts_time=5997.658333
[/FRAME]
[FRAME]
pts_time=6006.000000
[/FRAME]
[FRAME]
pts_time=6014.341667
[/FRAME]
[FRAME]
pts_time=6022.683333
[/FRAME]
[FRAME]
pts_time=6031.025000
[/FRAME]
[FRAME]
pts_time=6039.366667
[/FRAME]
[FRAME]
pts_time=6047.708333
[/FRAME]
[FRAME]
pts_time=6056.050000
[/FRAME]
[FRAME]
pts_time=6064.391667
[/FRAME]
[FRAME]
pts_time=6072.733333
[/FRAME]
[FRAME]
pts_time=6081.075000
[/FRAME]
[FRAME]
pts_time=6089.416667
[/FRAME]
[FRAME]
pts_time=6097.758333
[/FRAME]
[FRAME]
pts_time=6106.100000
[/FRAME]
[FRAME]
pts_time=6114.441667
[/FRAME]
[FRAME]
pts_time=6122.783333
[/FRAME]
[FRAME]
pts_time=6131.125000
[/FRAME]
[FRAME]
pts_time=6139.466667
[/FRAME]
[FRAME]
pts_time=6147.808333
[/FRAME]
[FRAME]
pts_time=6156.150000
[/FRAME]
[FRAME]
pts_time=6164.491667
[/FRAME]
[FRAME]
pts_time=6172.833333
[/FRAME]
[FRAME]
pts_time=6181.175000
[/FRAME]
[FRAME]
pts_time=6189.516667
[/FRAME]
[FRAME]
pts_time=6197.858333
[/FRAME]
[FRAME]
pts_time=6206.200000
[/FRAME]
[FRAME]
pts_time=6214.541667
[/FRAME]
[FRAME]
pts_time=6222.883333
[/FRAME]
[FRAME]
pts_time=6231.225000
[/FRAME]
[FRAME]
pts_time=6239.566667
[/FRAME]
[FRAME]
pts_time=6247.908333
[/FRAME]
[FRAME]
pts_time=6256.250000
[/FRAME]
[FRAME]
pts_time=6264.591667
[/FRAME]
[FRAME]
pts_time=6272.933333
[/FRAME]
[FRAME]
pts_time=6281.275000
[/FRAME]
[FRAME]
pts_time=6289.616667
[/FRAME]
[FRAME]
pts_time=6297.958333
[/FRAME]
[FRAME]
pts_time=6306.300000
[/FRAME]
[FRAME]
pts_time=6314.641667
[/FRAME]
[FRAME]
pts_time=6322.983333
[/FRAME]
[FRAME]
pts_time=6331.325000
[/FRAME]
[FRAME]
pts_time=6339.666667
[/FRAME]
[FRAME]
pts_time=6348.008333
[/FRAME]
[FRAME]
pts_time=6356.350000
[/FRAME]
[FRAME]
pts_time=6364.691667
[/FRAME]
[FRAME]
pts_time=6373.033333
[/FRAME]
[FRAME]
pts_time=6381.375000
[/FRAME]
[FRAME]
pts_time=6389.716667
[/FRAME]
[FRAME]
pts_time=6398.058333
[/FRAME]
[FRAME]
pts_time=6406.400000
[/FRAME]
[FRAME]
pts_time=6414.741667
[/FRAME]
[FRAME]
pts_time=6423.083333
[/FRAME]
[FRAME]
pts_time=6431.425000
[/FRAME]
[FRAME]
pts_time=6439.766667
[/FRAME]
[FRAME]
pts_time=6448.108333
[/FRAME]
[FRAME]
pts_time=6456.450000
[/FRAME]
[FRAME]
pts_time=6464.791667
[/FRAME]
[FRAME]
pts_time=6473.133333
[/FRAME]
[FRAME]
pts_time=6481.475000
[/FRAME]
[FRAME]
pts_time=6489.816667
[/FRAME]
[FRAME]
pts_time=6498.158333
[/FRAME]
[FRAME]
pts_time=6506.500000
[/FRAME]
[FRAME]
pts_time=6514.841667
[/FRAME]
[FRAME]
pts_time=6523.183333
[/FRAME]
[FRAME]
pts_time=6531.525000
[/FRAME]
[FRAME]
pts_time=6539.866667
[/FRAME]
[FRAME]
pts_time=6548.208333
[/FRAME]
[FRAME]
pts_time=6556.550000
[/FRAME]
[FRAME]
pts_time=6564.891667
[/FRAME]
[FRAME]
pts_time=6573.233333
[/FRAME]
[FRAME]
pts_time=6581.575000
[/FRAME]
[FRAME]
pts_time=6589.916667
[/FRAME]
[FRAME]
pts_time=6598.258333
[/FRAME]
[FRAME]
pts_time=6606.600000
[/FRAME]
[FRAME]
pts_time=6614.941667
[/FRAME]
[FRAME]
pts_time=6623.283333
[/FRAME]
[FRAME]
pts_time=6631.625000
[/FRAME]
[FRAME]
pts_time=6639.966667
[/FRAME]
[FRAME]
pts_time=6648.308333
[/FRAME]
[FRAME]
pts_time=6656.650000
[/FRAME]
[FRAME]
pts_time=6664.991667
[/FRAME]
[FRAME]
pts_time=6673.333333
[/FRAME]
[FRAME]
pts_time=6681.675000
[/FRAME]
[FRAME]
pts_time=6690.016667
[/FRAME]
[FRAME]
pts_time=6698.358333
[/FRAME]
[FRAME]
pts_time=6706.700000
[/FRAME]
[FRAME]
pts_time=6715.041667
[/FRAME]
[FRAME]
pts_time=6723.383333
[/FRAME]
[FRAME]
pts_time=6731.725000
[/FRAME]
[FRAME]
pts_time=6740.066667
[/FRAME]
[FRAME]
pts_time=6748.408333
[/FRAME]
[FRAME]
pts_time=6756.750000
[/FRAME]
[FRAME]
pts_time=6765.091667
[/FRAME]
[FRAME]
pts_time=6773.433333
[/FRAME]
[FRAME]
pts_time=6781.775000
[/FRAME]
[FRAME]
pts_time=6790.116667
[/FRAME]
[FRAME]
pts_time=6798.458333
[/FRAME]
[FRAME]
pts_time=6806.800000
[/FRAME]
[FRAME]
pts_time=6815.141667
[/FRAME]
[FRAME]
pts_time=6823.483333
[/FRAME]
[FRAME]
pts_time=6831.825000
[/FRAME]
[FRAME]
pts_time=6840.166667
[/FRAME]
[FRAME]
pts_time=6848.508333
[/FRAME]
[FRAME]
pts_time=6856.850000
[/FRAME]
[FRAME]
pts_time=6865.191667
[/FRAME]
[FRAME]
pts_time=6873.533333
[/FRAME]
[FRAME]
pts_time=6881.875000
[/FRAME]
[FRAME]
pts_time=6890.216667
[/FRAME]
[FRAME]
pts_time=6898.558333
[/FRAME]
[FRAME]
pts_time=6906.900000
[/FRAME]
[FRAME]
pts_time=6915.241667
[/FRAME]
[FRAME]
pts_time=6923.583333
[/FRAME]
[FRAME]
pts_time=6931.925000
[/FRAME]
[FRAME]
pts_time=6940.266667
[/FRAME]
[FRAME]
pts_time=6948.608333
[/FRAME]
[FRAME]
pts_time=6956.950000
[/FRAME]
[FRAME]
pts_time=6965.291667
[/FRAME]
[FRAME]
pts_time=6973.633333
[/FRAME]
[FRAME]
pts_time=6981.975000
[/FRAME]
[FRAME]
pts_time=6990.316667
[/FRAME]
[FRAME]
pts_time=6998.658333
[/FRAME]
[FRAME]
pts_time=7007.000000
[/FRAME]
[FRAME]
pts_time=7015.341667
[/FRAME]
[FRAME]
pts_time=7023.683333
[/FRAME]
[FRAME]
pts_time=7032.025000
[/FRAME]
[FRAME]
pts_time=7040.366667
[/FRAME]
[FRAME]
pts_time=7048.708333
[/FRAME]
[FRAME]
pts_time=7057.050000
[/FRAME]
[FRAME]
pts_time=7065.391667
[/FRAME]
[FRAME]
pts_time=7073.733333
[/FRAME]
[FRAME]
pts_time=7082.075000
[/FRAME]
[FRAME]
pts_time=7090.416667
[/FRAME]
[FRAME]
pts_time=7098.758333
[/FRAME]
[FRAME]
pts_time=7107.100000
[/FRAME]
[FRAME]
pts_time=7115.441667
[/FRAME]
[FRAME]
pts_time=7123.783333
[/FRAME]
[FRAME]
pts_time=7132.125000
[/FRAME]
[FRAME]
pts_time=7140.466667
[/FRAME]
[FRAME]
pts_time=7148.808333
[/FRAME]
[FRAME]
pts_time=7157.150000
[/FRAME]
[FRAME]
pts_time=7165.491667
[/FRAME]
[FRAME]
pts_time=7173.833333
[/FRAME]
[FRAME]
pts_time=7182.175000
[/FRAME]
[FRAME]
pts_time=7190.516667
[/FRAME]
[FRAME]
pts_time=7198.858333
[/FRAME]
[FRAME]
pts_time=7207.200000
[/FRAME]
[FRAME]
pts_time=7215.541667
[/FRAME]
[FRAME]
pts_time=7223.883333
[/FRAME]
[FRAME]
pts_time=7232.225000
[/FRAME]
[FRAME]
pts_time=7240.566667
[/FRAME]
[FRAME]
pts_time=7248.908333
[/FRAME]
[FRAME]
pts_time=7257.250000
[/FRAME]
[FRAME]
pts_time=7265.591667
[/FRAME]
[FRAME]
pts_time=7273.933333
[/FRAME]
[FRAME]
pts_time=7282.275000
[/FRAME]
[FRAME]
pts_time=7290.616667
[/FRAME]
[FRAME]
pts_time=7298.958333
[/FRAME]
[FRAME]
pts_time=7307.300000
[/FRAME]
[FRAME]
pts_time=7315.641667
[/FRAME]
[FRAME]
pts_time=7323.983333
[/FRAME]
[FRAME]
pts_time=7332.325000
[/FRAME]
[FRAME]
pts_time=7340.666667
[/FRAME]
[FRAME]
pts_time=7349.008333
[/FRAME]
[FRAME]
pts_time=7357.350000
[/FRAME]
[FRAME]
pts_time=7365.691667
[/FRAME]
[FRAME]
pts_time=7374.033333
[/FRAME]
[FRAME]
pts_time=7382.375000
[/FRAME]
[FRAME]
pts_time=7390.716667
[/FRAME]
[FRAME]
pts_time=7399.058333
[/FRAME]
[FRAME]
pts_time=7407.400000
[/FRAME]
[FRAME]
pts_time=7415.741667
[/FRAME]
[FRAME]
pts_time=7424.083333
[/FRAME]
[FRAME]
pts_time=7432.425000
[/FRAME]
[FRAME]
pts_time=7440.766667
[/FRAME]
[FRAME]
pts_time=7449.108333
[/FRAME]
[FRAME]
pts_time=7457.450000
[/FRAME]
[FRAME]
pts_time=7465.791667
[/FRAME]
[FRAME]
pts_time=7474.133333
[/FRAME]
[FRAME]
pts_time=7482.475000
[/FRAME]
[FRAME]
pts_time=7490.816667
[/FRAME]
[FRAME]
pts_time=7499.158333
[/FRAME]
[FRAME]
pts_time=7507.500000
[/FRAME]
[FRAME]
pts_time=7515.841667
[/FRAME]
[FRAME]
pts_time=7524.183333
[/FRAME]
[FRAME]
pts_time=7532.525000
[/FRAME]
[FRAME]
pts_time=7540.866667
[/FRAME]
[FRAME]
pts_time=7549.208333
[/FRAME]
[FRAME]
pts_time=7557.550000
[/FRAME]
[FRAME]
pts_time=7565.891667
[/FRAME]
[FRAME]
pts_time=7574.233333
[/FRAME]
[FRAME]
pts_time=7582.575000
[/FRAME]
[FRAME]
pts_time=7590.916667
[/FRAME]
[FRAME]
pts_time=7599.258333
[/FRAME]
[FRAME]
pts_time=7607.600000
[/FRAME]
[FRAME]
pts_time=7615.941667
[/FRAME]
[FRAME]
pts_time=7624.283333
[/FRAME]
[FRAME]
pts_time=7632.625000
[/FRAME]
[FRAME]
pts_time=7640.966667
[/FRAME]
[FRAME]
pts_time=7649.308333
[/FRAME]
[FRAME]
pts_time=7657.650000
[/FRAME]
[FRAME]
pts_time=7665.991667
[/FRAME]
[FRAME]
pts_time=7674.333333
[/FRAME]
[FRAME]
pts_time=7682.675000
[/FRAME]
[FRAME]
pts_time=7691.016667
[/FRAME]
[FRAME]
pts_time=7699.358333
[/FRAME]
[FRAME]
pts_time=7707.700000
[/FRAME]
[FRAME]
pts_time=7716.041667
[/FRAME]
[FRAME]
pts_time=7724.383333
[/FRAME]
[FRAME]
pts_time=7732.725000
[/FRAME]
[FRAME]
pts_time=7741.066667
[/FRAME]
[FRAME]
pts_time=7749.408333
[/FRAME]
[FRAME]
pts_time=7757.750000
[/FRAME]
[FRAME]
pts_time=7766.091667
[/FRAME]
[FRAME]
pts_time=7774.433333
[/FRAME]
[FRAME]
pts_time=7782.775000
[/FRAME]
[FRAME]
pts_time=7791.116667
[/FRAME]
[FRAME]
pts_time=7799.458333
[/FRAME]
[FRAME]
pts_time=7807.800000
[/FRAME]
[FRAME]
pts_time=7816.141667
[/FRAME]
[FRAME]
pts_time=7824.483333
[/FRAME]
[FRAME]
pts_time=7832.825000
[/FRAME]
[FRAME]
pts_time=7841.166667
[/FRAME]
[FRAME]
pts_time=7849.508333
[/FRAME]
[FRAME]
pts_time=7857.850000
[/FRAME]
[FRAME]
pts_time=7866.191667
[/FRAME]
[FRAME]
pts_time=7874.533333
[/FRAME]
[FRAME]
pts_time=7882.875000
[/FRAME]
[FRAME]
pts_time=7891.216667
[/FRAME]
[FRAME]
pts_time=7899.558333
[/FRAME]
[FRAME]
pts_time=7907.900000
[/FRAME]
[FRAME]
pts_time=7916.241667
[/FRAME]
[FRAME]
pts_time=7924.583333
[/FRAME]
[FRAME]
pts_time=7932.925000
[/FRAME]
[FRAME]
pts_time=7941.266667
[/FRAME]
[FRAME]
pts_time=7949.608333
[/FRAME]
[FRAME]
pts_time=7957.950000
[/FRAME]
[FRAME]
pts_time=7966.291667
[/FRAME]
[FRAME]
pts_time=7974.633333
[/FRAME]
[FRAME]
pts_time=7982.975000
[/FRAME]
[FRAME]
pts_time=7991.316667
[/FRAME]
[FRAME]
pts_time=7999.658333
[/FRAME]
[FRAME]
pts_time=8008.000000
[/FRAME]
[FRAME]
pts_time=8016.341667
[/FRAME]
[FRAME]
pts_time=8024.683333
[/FRAME]
[FRAME]
pts_time=8033.025000
[/FRAME]
[FRAME]
pts_time=8041.366667
[/FRAME]
[FRAME]
pts_time=8049.708333
[/FRAME]
[FRAME]
pts_time=8058.050000
[/FRAME]
[FRAME]
pts_time=8066.391667
[/FRAME]
[FRAME]
pts_time=8074.733333
[/FRAME]
[FRAME]
pts_time=8083.075000
[/FRAME]
[FRAME]
pts_time=8091.416667
[/FRAME]
[FRAME]
pts_time=8099.758333
[/FRAME]
[FRAME]
pts_time=8108.100000
[/FRAME]
[FRAME]
pts_time=8116.441667
[/FRAME]
[FRAME]
pts_time=8124.783333
[/FRAME]
[FRAME]
pts_time=8133.125000
[/FRAME]
[FRAME]
pts_time=8141.466667
[/FRAME]
[FRAME]
pts_time=8149.808333
[/FRAME]
[FRAME]
pts_time=8158.150000
[/FRAME]
[FRAME]
pts_time=8166.491667
[/FRAME]
[FRAME]
pts_time=8174.833333
[/FRAME]
[FRAME]
pts_time=8183.175000
[/FRAME]
[FRAME]
pts_time=8191.516667
[/FRAME]
[FRAME]
pts_time=8199.858333
[/FRAME]
[FRAME]
pts_time=8208.200000
[/FRAME]
[FRAME]
pts_time=8216.541667
[/FRAME]
[FRAME]
pts_time=8224.883333
[/FRAME]
[FRAME]
pts_time=8233.225000
[/FRAME]
[FRAME]
pts_time=8241.566667
[/FRAME]
[FRAME]
pts_time=8249.908333
[/FRAME]
[FRAME]
pts_time=8258.250000
[/FRAME]
[FRAME]
pts_time=8266.591667
[/FRAME]
[FRAME]
pts_time=8274.933333
[/FRAME]
[FRAME]
pts_time=8283.275000
[/FRAME]
[FRAME]
pts_time=8291.616667
[/FRAME]
[FRAME]
pts_time=8299.958333
[/FRAME]
[FRAME]
pts_time=8308.300000
[/FRAME]
[FRAME]
pts_time=8316.641667
[/FRAME]
[FRAME]
pts_time=8324.983333
[/FRAME]
[FRAME]
pts_time=8333.325000
[/FRAME]
[FRAME]
pts_time=8341.666667
[/FRAME]
[FRAME]
pts_time=8350.008333
[/FRAME]
[FRAME]
pts_time=8358.350000
[/FRAME]
[FRAME]
pts_time=8366.691667
[/FRAME]
[FRAME]
pts_time=8375.033333
[/FRAME]
[FRAME]
pts_time=8383.375000
[/FRAME]
[FRAME]
pts_time=8391.716667
[/FRAME]
[FRAME]
pts_time=8400.058333
[/FRAME]
[FRAME]
pts_time=8408.400000
[/FRAME]
[FRAME]
pts_time=8416.741667
[/FRAME]
[FRAME]
pts_time=8425.083333
[/FRAME]
[FRAME]
pts_time=8433.425000
[/FRAME]
[FRAME]
pts_time=8441.766667
[/FRAME]
[FRAME]
pts_time=8450.108333
[/FRAME]
[FRAME]
pts_time=8458.450000
[/FRAME]
[FRAME]
pts_time=8466.791667
[/FRAME]
[FRAME]
pts_time=8475.133333
[/FRAME]
[FRAME]
pts_time=8483.475000
[/FRAME]
[FRAME]
pts_time=8491.816667
[/FRAME]
[FRAME]
pts_time=8500.158333
[/FRAME]
[FRAME]
pts_time=8508.500000
[/FRAME]
[FRAME]
pts_time=8516.841667
[/FRAME]
[FRAME]
pts_time=8525.183333
[/FRAME]
[FRAME]
pts_time=8533.525000
[/FRAME]
[FRAME]
pts_time=8541.866667
[/FRAME]
[FRAME]
pts_time=8550.208333
[/FRAME]
[FRAME]
pts_time=8558.550000
[/FRAME]
[FRAME]
pts_time=8566.891667
[/FRAME]
[FRAME]
pts_time=8575.233333
[/FRAME]
[FRAME]
pts_time=8583.575000
[/FRAME]
[FRAME]
pts_time=8591.916667
[/FRAME]
[FRAME]
pts_time=8600.258333
[/FRAME]
[FRAME]
pts_time=8608.600000
[/FRAME]
[FRAME]
pts_time=8616.941667
[/FRAME]
[FRAME]
pts_time=8625.283333
[/FRAME]
[FRAME]
pts_time=8633.625000
[/FRAME]
[FRAME]
pts_time=8641.966667
[/FRAME]
[FRAME]
pts_time=8650.308333
[/FRAME]
[FRAME]
pts_time=8658.650000
[/FRAME]
[FRAME]
pts_time=8666.991667
[/FRAME]
[FRAME]
pts_time=8675.333333
[/FRAME]
[FRAME]
pts_time=8683.675000
[/FRAME]
[FRAME]
pts_time=8692.016667
[/FRAME]
[FRAME]
pts_time=8700.358333
[/FRAME]
[FRAME]
pts_time=8708.700000
[/FRAME]
[FRAME]
pts_time=8717.041667
[/FRAME]
[FRAME]
pts_time=8725.383333
[/FRAME]
[FRAME]
pts_time=8733.725000
[/FRAME]
[FRAME]
pts_time=8742.066667
[/FRAME]
[FRAME]
pts_time=8750.408333
[/FRAME]
[FRAME]
pts_time=8758.750000
[/FRAME]
[FRAME]
pts_time=8767.091667
[/FRAME]
[FRAME]
pts_time=8775.433333
[/FRAME]
[FRAME]
pts_time=8783.775000
[/FRAME]
[FRAME]
pts_time=8792.116667
[/FRAME]
[FRAME]
pts_time=8800.458333
[/FRAME]
[FRAME]
pts_time=8808.800000
[/FRAME]
[FRAME]
pts_time=8817.141667
[/FRAME]
[FRAME]
pts_time=8825.483333
[/FRAME]
[FRAME]
pts_time=8833.825000
[/FRAME]
[FRAME]
pts_time=8842.166667
[/FRAME]
[FRAME]
pts_time=8850.508333
[/FRAME]
[FRAME]
pts_time=8858.850000
[/FRAME]
[FRAME]
pts_time=8867.191667
[/FRAME]
[FRAME]
pts_time=8875.533333
[/FRAME]
[FRAME]
pts_time=8883.875000
[/FRAME]
[FRAME]
pts_time=8892.216667
[/FRAME]
[FRAME]
pts_time=8900.558333
[/FRAME]
[FRAME]
pts_time=8908.900000
[/FRAME]
[FRAME]
pts_time=8917.241667
[/FRAME]
[FRAME]
pts_time=8925.583333
[/FRAME]
[FRAME]
pts_time=8933.925000
[/FRAME]
[FRAME]
pts_time=8942.266667
[/FRAME]
[FRAME]
pts_time=8950.608333
[/FRAME]
[FRAME]
pts_time=8958.950000
[/FRAME]
[FRAME]
pts_time=8967.291667
[/FRAME]
[FRAME]
pts_time=8975.633333
[/FRAME]
[FRAME]
pts_time=8983.975000
[/FRAME]
[FRAME]
pts_time=8992.316667
[/FRAME]
[FRAME]
pts_time=9000.658333
[/FRAME]
[FRAME]
pts_time=9009.000000
[/FRAME]
[FRAME]
pts_time=9017.341667
[/FRAME]
